<mxfile host="app.diagrams.net" modified="2024-04-25T07:48:58.963Z" agent="Mozilla/5.0 (Macintosh; Intel Mac OS X 10_15_7) AppleWebKit/537.36 (KHTML, like Gecko) Chrome/124.0.0.0 Safari/537.36" etag="La8YOOMcTASMjeOR0dhr" version="24.3.0" type="github">
  <diagram name="第 1 页" id="v8mL-R38DfBbgqLZ-8sR">
    <mxGraphModel dx="1434" dy="786" grid="1" gridSize="10" guides="1" tooltips="1" connect="1" arrows="1" fold="1" page="1" pageScale="1" pageWidth="827" pageHeight="1169" math="0" shadow="0">
      <root>
        <mxCell id="0" />
        <mxCell id="1" parent="0" />
        <mxCell id="HUhTeKomCQSXCw2tcIWB-4" style="edgeStyle=orthogonalEdgeStyle;rounded=0;orthogonalLoop=1;jettySize=auto;html=1;entryX=0.5;entryY=0;entryDx=0;entryDy=0;" parent="1" source="HUhTeKomCQSXCw2tcIWB-2" target="HUhTeKomCQSXCw2tcIWB-20" edge="1">
          <mxGeometry relative="1" as="geometry">
            <mxPoint x="180" y="240" as="targetPoint" />
            <Array as="points">
              <mxPoint x="230" y="210" />
            </Array>
          </mxGeometry>
        </mxCell>
        <mxCell id="HUhTeKomCQSXCw2tcIWB-5" value="input email" style="edgeLabel;html=1;align=center;verticalAlign=middle;resizable=0;points=[];" parent="HUhTeKomCQSXCw2tcIWB-4" vertex="1" connectable="0">
          <mxGeometry x="-0.1312" y="1" relative="1" as="geometry">
            <mxPoint as="offset" />
          </mxGeometry>
        </mxCell>
        <mxCell id="HUhTeKomCQSXCw2tcIWB-2" value="user" style="shape=actor;whiteSpace=wrap;html=1;" parent="1" vertex="1">
          <mxGeometry x="210" y="60" width="40" height="60" as="geometry" />
        </mxCell>
        <mxCell id="_Rga2oQOsfhEcSBuiwZP-21" style="edgeStyle=orthogonalEdgeStyle;rounded=0;orthogonalLoop=1;jettySize=auto;html=1;entryX=0;entryY=0.5;entryDx=0;entryDy=0;" edge="1" parent="1" source="HUhTeKomCQSXCw2tcIWB-10" target="HUhTeKomCQSXCw2tcIWB-28">
          <mxGeometry relative="1" as="geometry" />
        </mxCell>
        <mxCell id="_Rga2oQOsfhEcSBuiwZP-24" value="input new password" style="edgeLabel;html=1;align=center;verticalAlign=middle;resizable=0;points=[];" vertex="1" connectable="0" parent="_Rga2oQOsfhEcSBuiwZP-21">
          <mxGeometry x="-0.3077" y="2" relative="1" as="geometry">
            <mxPoint as="offset" />
          </mxGeometry>
        </mxCell>
        <mxCell id="HUhTeKomCQSXCw2tcIWB-10" value="user" style="shape=actor;whiteSpace=wrap;html=1;" parent="1" vertex="1">
          <mxGeometry x="410" y="320" width="60" height="60" as="geometry" />
        </mxCell>
        <mxCell id="HUhTeKomCQSXCw2tcIWB-16" value="aws cloud" style="whiteSpace=wrap;html=1;rounded=1;" parent="1" vertex="1">
          <mxGeometry x="600" y="485" width="120" height="60" as="geometry" />
        </mxCell>
        <mxCell id="_Rga2oQOsfhEcSBuiwZP-3" value="" style="edgeStyle=orthogonalEdgeStyle;rounded=0;orthogonalLoop=1;jettySize=auto;html=1;" edge="1" parent="1" source="HUhTeKomCQSXCw2tcIWB-20" target="_Rga2oQOsfhEcSBuiwZP-2">
          <mxGeometry relative="1" as="geometry" />
        </mxCell>
        <mxCell id="_Rga2oQOsfhEcSBuiwZP-5" value="&lt;p style=&quot;margin: 0px; font-variant-numeric: normal; font-variant-east-asian: normal; font-variant-alternates: normal; font-kerning: auto; font-optical-sizing: auto; font-feature-settings: normal; font-variation-settings: normal; font-variant-position: normal; font-stretch: normal; font-size: 12px; line-height: normal; text-align: start; text-wrap: wrap;&quot; class=&quot;p1&quot;&gt;get proxy/email&lt;/p&gt;" style="edgeLabel;html=1;align=center;verticalAlign=middle;resizable=0;points=[];" vertex="1" connectable="0" parent="_Rga2oQOsfhEcSBuiwZP-3">
          <mxGeometry x="-0.325" y="1" relative="1" as="geometry">
            <mxPoint as="offset" />
          </mxGeometry>
        </mxCell>
        <mxCell id="HUhTeKomCQSXCw2tcIWB-20" value="dotcn&lt;div&gt;web server&lt;/div&gt;&lt;div&gt;(china)&lt;/div&gt;" style="whiteSpace=wrap;html=1;rounded=1;" parent="1" vertex="1">
          <mxGeometry x="170" y="220" width="120" height="60" as="geometry" />
        </mxCell>
        <mxCell id="_Rga2oQOsfhEcSBuiwZP-16" style="edgeStyle=orthogonalEdgeStyle;rounded=0;orthogonalLoop=1;jettySize=auto;html=1;entryX=0.5;entryY=0;entryDx=0;entryDy=0;" edge="1" parent="1" source="HUhTeKomCQSXCw2tcIWB-28" target="HUhTeKomCQSXCw2tcIWB-16">
          <mxGeometry relative="1" as="geometry" />
        </mxCell>
        <mxCell id="_Rga2oQOsfhEcSBuiwZP-17" value="&lt;span style=&quot;color: rgba(0, 0, 0, 0); font-family: monospace; font-size: 0px; text-align: start; background-color: rgb(251, 251, 251);&quot;&gt;3CmxGraphModel%3E%3Croot%3E%3CmxCell%20id%3D%220%22%2F%3E%3CmxCell%20id%3D%221%22%20parent%3D%220%22%2F%3E%3CmxCell%20id%3D%222%22%20value%3D%22%26lt%3Bp%20style%3D%26quot%3Bmargin%3A%200px%3B%20font-variant-numeric%3A%20normal%3B%20font-variant-east-asian%3A%20normal%3B%20font-variant-alternates%3A%20normal%3B%20font-kerning%3A%20auto%3B%20font-optical-sizing%3A%20auto%3B%20font-feature-settings%3A%20normal%3B%20font-variation-settings%3A%20normal%3B%20font-variant-position%3A%20normal%3B%20font-stretch%3A%20normal%3B%20font-size%3A%2012px%3B%20line-height%3A%20normal%3B%20text-align%3A%20start%3B%20text-wrap%3A%20wrap%3B%26quot%3B%20class%3D%26quot%3Bp1%26quot%3B%26gt%3Bpost%20proxy%2Fpassword%20update%26lt%3B%2Fp%26gt%3B%22%20style%3D%22edgeLabel%3Bhtml%3D1%3Balign%3Dcenter%3BverticalAlign%3Dmiddle%3Bresizable%3D0%3Bpoints%3D%5B%5D%3B%22%20vertex%3D%221%22%20connectable%3D%220%22%20parent%3D%221%22%3E%3CmxGeometry%20x%3D%22481%22%20y%3D%22391.49951923121375%22%20as%3D%22geometry%22%2F%3E%3C%2FmxCell%3E%3C%2Froot%3E%3C%2FmxGraphModel%3&lt;/span&gt;" style="edgeLabel;html=1;align=center;verticalAlign=middle;resizable=0;points=[];" vertex="1" connectable="0" parent="_Rga2oQOsfhEcSBuiwZP-16">
          <mxGeometry x="0.2667" y="1" relative="1" as="geometry">
            <mxPoint as="offset" />
          </mxGeometry>
        </mxCell>
        <mxCell id="_Rga2oQOsfhEcSBuiwZP-18" value="&lt;p style=&quot;margin: 0px; font-variant-numeric: normal; font-variant-east-asian: normal; font-variant-alternates: normal; font-kerning: auto; font-optical-sizing: auto; font-feature-settings: normal; font-variation-settings: normal; font-variant-position: normal; font-stretch: normal; font-size: 12px; line-height: normal; text-align: start; text-wrap: wrap;&quot; class=&quot;p1&quot;&gt;post proxy/password&lt;/p&gt;&lt;p style=&quot;margin: 0px; font-variant-numeric: normal; font-variant-east-asian: normal; font-variant-alternates: normal; font-kerning: auto; font-optical-sizing: auto; font-feature-settings: normal; font-variation-settings: normal; font-variant-position: normal; font-stretch: normal; font-size: 12px; line-height: normal; text-align: start; text-wrap: wrap;&quot; class=&quot;p1&quot;&gt;&lt;br&gt;&lt;/p&gt;" style="edgeLabel;html=1;align=center;verticalAlign=middle;resizable=0;points=[];" vertex="1" connectable="0" parent="_Rga2oQOsfhEcSBuiwZP-16">
          <mxGeometry x="-0.2167" relative="1" as="geometry">
            <mxPoint as="offset" />
          </mxGeometry>
        </mxCell>
        <mxCell id="HUhTeKomCQSXCw2tcIWB-28" value="dotcn&lt;div&gt;web server&lt;/div&gt;&lt;div&gt;(china)&lt;/div&gt;" style="whiteSpace=wrap;html=1;rounded=1;" parent="1" vertex="1">
          <mxGeometry x="600" y="315" width="120" height="70" as="geometry" />
        </mxCell>
        <mxCell id="_Rga2oQOsfhEcSBuiwZP-7" value="" style="edgeStyle=orthogonalEdgeStyle;rounded=0;orthogonalLoop=1;jettySize=auto;html=1;" edge="1" parent="1" source="_Rga2oQOsfhEcSBuiwZP-2" target="_Rga2oQOsfhEcSBuiwZP-6">
          <mxGeometry relative="1" as="geometry" />
        </mxCell>
        <mxCell id="_Rga2oQOsfhEcSBuiwZP-2" value="aws&amp;nbsp;" style="whiteSpace=wrap;html=1;rounded=1;" vertex="1" parent="1">
          <mxGeometry x="170" y="350" width="120" height="60" as="geometry" />
        </mxCell>
        <mxCell id="_Rga2oQOsfhEcSBuiwZP-9" value="" style="edgeStyle=orthogonalEdgeStyle;rounded=0;orthogonalLoop=1;jettySize=auto;html=1;" edge="1" parent="1" source="_Rga2oQOsfhEcSBuiwZP-6">
          <mxGeometry relative="1" as="geometry">
            <mxPoint x="370" y="517.5" as="targetPoint" />
          </mxGeometry>
        </mxCell>
        <mxCell id="_Rga2oQOsfhEcSBuiwZP-10" value="yes" style="edgeLabel;html=1;align=center;verticalAlign=middle;resizable=0;points=[];" vertex="1" connectable="0" parent="_Rga2oQOsfhEcSBuiwZP-9">
          <mxGeometry x="-0.4" y="2" relative="1" as="geometry">
            <mxPoint as="offset" />
          </mxGeometry>
        </mxCell>
        <mxCell id="_Rga2oQOsfhEcSBuiwZP-14" value="" style="edgeStyle=orthogonalEdgeStyle;rounded=0;orthogonalLoop=1;jettySize=auto;html=1;" edge="1" parent="1" source="_Rga2oQOsfhEcSBuiwZP-6" target="_Rga2oQOsfhEcSBuiwZP-13">
          <mxGeometry relative="1" as="geometry" />
        </mxCell>
        <mxCell id="_Rga2oQOsfhEcSBuiwZP-15" value="no" style="edgeLabel;html=1;align=center;verticalAlign=middle;resizable=0;points=[];" vertex="1" connectable="0" parent="_Rga2oQOsfhEcSBuiwZP-14">
          <mxGeometry x="-0.1667" y="-3" relative="1" as="geometry">
            <mxPoint as="offset" />
          </mxGeometry>
        </mxCell>
        <mxCell id="_Rga2oQOsfhEcSBuiwZP-6" value="user info" style="rhombus;whiteSpace=wrap;html=1;rounded=1;" vertex="1" parent="1">
          <mxGeometry x="190" y="480" width="80" height="80" as="geometry" />
        </mxCell>
        <mxCell id="_Rga2oQOsfhEcSBuiwZP-22" style="edgeStyle=orthogonalEdgeStyle;rounded=0;orthogonalLoop=1;jettySize=auto;html=1;entryX=0.5;entryY=1;entryDx=0;entryDy=0;" edge="1" parent="1" target="HUhTeKomCQSXCw2tcIWB-10">
          <mxGeometry relative="1" as="geometry">
            <mxPoint x="440" y="490" as="sourcePoint" />
          </mxGeometry>
        </mxCell>
        <mxCell id="_Rga2oQOsfhEcSBuiwZP-23" value="&lt;div&gt;genrate forget url&amp;nbsp;&lt;br&gt;&lt;/div&gt;&lt;div&gt;&lt;br&gt;&lt;/div&gt;send email" style="edgeLabel;html=1;align=center;verticalAlign=middle;resizable=0;points=[];" vertex="1" connectable="0" parent="_Rga2oQOsfhEcSBuiwZP-22">
          <mxGeometry x="0.2364" y="-2" relative="1" as="geometry">
            <mxPoint as="offset" />
          </mxGeometry>
        </mxCell>
        <mxCell id="_Rga2oQOsfhEcSBuiwZP-13" value="Guiding users to register" style="whiteSpace=wrap;html=1;rounded=1;" vertex="1" parent="1">
          <mxGeometry x="20" y="490" width="120" height="60" as="geometry" />
        </mxCell>
        <mxCell id="_Rga2oQOsfhEcSBuiwZP-25" value="dotcn&lt;div&gt;web server&lt;/div&gt;&lt;div&gt;(china)&lt;/div&gt;" style="whiteSpace=wrap;html=1;rounded=1;" vertex="1" parent="1">
          <mxGeometry x="380" y="485" width="120" height="60" as="geometry" />
        </mxCell>
      </root>
    </mxGraphModel>
  </diagram>
</mxfile>
